<?xml version="1.0" encoding="UTF-8"?>
<svg xmlns="http://www.w3.org/2000/svg" xmlns:xlink="http://www.w3.org/1999/xlink" width="48px" height="48px" viewBox="0 0 48 48" version="1.1">
<g id="surface1">
<path style=" stroke:none;fill-rule:nonzero;fill:rgb(86.666667%,28.235294%,7.843137%);fill-opacity:1;" d="M 47.933594 23.941406 C 47.933594 37.160156 37.214844 47.878906 23.992188 47.878906 C 10.769531 47.878906 0.0507812 37.160156 0.0507812 23.941406 C 0.0507812 10.71875 10.769531 0 23.992188 0 C 37.214844 0 47.933594 10.71875 47.933594 23.941406 Z M 47.933594 23.941406 "/>
<path style=" stroke:none;fill-rule:nonzero;fill:rgb(100%,100%,100%);fill-opacity:1;" d="M 7.710938 20.742188 C 5.945312 20.742188 4.515625 22.175781 4.515625 23.941406 C 4.515625 25.707031 5.945312 27.136719 7.710938 27.136719 C 9.476562 27.136719 10.910156 25.707031 10.910156 23.941406 C 10.910156 22.175781 9.476562 20.742188 7.710938 20.742188 Z M 30.535156 35.269531 C 29.003906 36.152344 28.480469 38.109375 29.363281 39.636719 C 30.246094 41.164062 32.199219 41.6875 33.730469 40.804688 C 35.257812 39.921875 35.78125 37.96875 34.898438 36.441406 C 34.015625 34.914062 32.0625 34.390625 30.535156 35.269531 Z M 14.65625 23.941406 C 14.65625 20.78125 16.222656 17.992188 18.625 16.300781 L 16.289062 12.386719 C 13.492188 14.257812 11.410156 17.113281 10.546875 20.457031 C 11.554688 21.28125 12.199219 22.535156 12.199219 23.941406 C 12.199219 25.34375 11.554688 26.597656 10.546875 27.421875 C 11.410156 30.769531 13.492188 33.625 16.289062 35.492188 L 18.625 31.578125 C 16.222656 29.890625 14.65625 27.097656 14.65625 23.941406 Z M 23.992188 14.605469 C 28.867188 14.605469 32.871094 18.34375 33.289062 23.113281 L 37.84375 23.046875 C 37.621094 19.523438 36.082031 16.363281 33.71875 14.039062 C 32.503906 14.5 31.101562 14.429688 29.886719 13.730469 C 28.671875 13.027344 27.910156 11.84375 27.699219 10.558594 C 26.519531 10.234375 25.277344 10.054688 23.992188 10.054688 C 21.78125 10.054688 19.691406 10.574219 17.835938 11.492188 L 20.058594 15.472656 C 21.253906 14.917969 22.585938 14.605469 23.992188 14.605469 Z M 23.992188 33.277344 C 22.585938 33.277344 21.253906 32.964844 20.058594 32.40625 L 17.835938 36.386719 C 19.691406 37.308594 21.78125 37.828125 23.992188 37.828125 C 25.277344 37.828125 26.519531 37.648438 27.699219 37.320312 C 27.910156 36.035156 28.671875 34.855469 29.886719 34.152344 C 31.101562 33.449219 32.503906 33.382812 33.71875 33.839844 C 36.082031 31.515625 37.621094 28.355469 37.84375 24.835938 L 33.289062 24.769531 C 32.871094 29.539062 28.867188 33.277344 23.992188 33.277344 Z M 30.53125 12.609375 C 32.0625 13.492188 34.015625 12.96875 34.898438 11.441406 C 35.78125 9.910156 35.257812 7.957031 33.730469 7.074219 C 32.199219 6.191406 30.246094 6.714844 29.363281 8.246094 C 28.480469 9.773438 29.003906 11.726562 30.53125 12.609375 Z M 30.53125 12.609375 "/>
</g>
</svg>
